<svg width="171" height="186" viewBox="0 0 171 186" fill="none" xmlns="http://www.w3.org/2000/svg">
<g clip-path="url(#clip0_861_4214)">
<path opacity="0.9" d="M89.8092 0.000213479C91.4951 1.79951 93.9216 1.42742 95.9804 1.88616C111.608 5.32164 123.628 19.5987 123.945 35.5273C124.17 40.9558 124.287 46.3893 124.405 51.8382C124.451 53.9025 124.18 55.8802 122.586 57.4756C119.689 60.381 115.582 59.4839 114.305 55.605C113.912 54.3025 113.72 52.9484 113.733 51.5884C113.646 46.4148 113.682 41.2259 113.375 36.0625C112.665 24.1556 104.905 14.9807 93.2371 12.1314C84.4094 9.98043 75.735 10.5105 68.3582 16.0715C61.5332 21.2196 56.5318 27.8255 56.9661 37.189C57.1908 42.016 57.0478 46.8736 57.0989 51.7006C57.2828 55.0494 55.4539 59.0252 51.5969 58.8366C49.2623 58.7856 47.9341 57.2819 46.9736 55.3654C46.7742 54.9867 46.6591 54.5694 46.6365 54.1421C46.5139 44.7837 44.9455 35.2827 47.929 26.1486C51.7246 14.5016 59.9188 7.06996 71.3723 2.86991C74.7491 1.6364 78.2996 1.22863 81.6406 -0.00488281H82.6623C84.3328 0.846341 86.0748 0.188808 87.7709 0.244876C88.3124 0.377402 88.8846 0.698524 89.3035 -0.00488281L89.8092 0.000213479Z" fill="#EAEAEA"/>
<path d="M171 155.896C169.871 156.227 170.213 157.175 170.081 157.965C169.35 162.425 168.006 166.671 165.565 170.525C165.314 169.103 165.095 167.635 166.029 166.406C168.645 162.981 168.87 158.883 169.468 154.876C169.468 138.402 169.468 121.922 169.468 105.434C169.508 97.7884 169.263 90.1426 169.978 82.5377C169.84 76.9308 170.372 71.2781 169.565 65.6457C169.222 63.2552 168.032 60.9717 168.543 58.4639C170.132 61.7158 170.147 65.2788 170.617 68.755C170.3 95.4641 170.617 122.224 170.551 148.954C170.551 149.575 170.239 150.34 171.031 150.778L171 155.896Z" fill="#1182E3"/>
<path d="M87.7964 0.249761V0H89.329C88.9101 0.703406 88.3379 0.382287 87.7964 0.249761Z" fill="#2CBFD6"/>
<path d="M44.93 69.0814C49.0581 70.5821 53.5755 70.6343 57.7372 69.2292C60.4295 68.3576 61.8599 65.9925 63.7552 64.1728L64.4295 63.1534L64.7922 62.6844L64.828 62.6335C65.9008 62.5621 65.8497 61.8179 65.7628 61.0636C66.192 60.9871 66.3452 60.4723 66.2737 60.0441C67.8727 58.7036 68.3989 56.9145 68.404 54.9164C68.404 50.7622 68.3478 46.6029 68.404 42.4437C68.4704 38.9266 68.7667 38.6973 72.1741 38.6973H86.7183C87.0708 39.7167 87.74 40.7769 87.7145 41.7912C87.5408 45.2726 88.399 48.6775 88.3071 52.1435C88.1733 54.5092 88.1955 56.8811 88.3735 59.2439C89.0743 65.6161 89.052 72.047 88.3071 78.4142C88.2458 80.2339 88.0976 82.0434 87.9341 83.8529C87.7962 85.382 86.9124 87.0131 87.7656 88.6136C87.5919 89.6331 87.4131 90.6525 87.2547 91.6719C86.0797 91.5394 85.574 92.2734 85.2981 93.2316C84.8894 94.6741 83.4846 94.5008 82.5854 94.5671C81.1295 94.6741 82.3147 93.4814 82.1206 92.9054C81.7527 91.835 81.1806 91.2285 80.164 92.253C79.5816 92.8443 79.0963 93.9554 78.2227 93.5935C75.2597 92.3549 71.3619 92.4824 70.049 88.6595C69.3133 86.5289 67.8369 86.7226 66.7795 87.7828C65.6096 88.9551 64.4959 88.8022 63.2034 88.6544C62.4474 88.1447 61.6709 87.635 60.9403 87.0692C59.6255 86.0208 58.0925 85.2787 56.4535 84.8971C54.8144 84.5156 53.1105 84.5041 51.4665 84.8637C49.8224 85.2232 48.2795 85.9446 46.9507 86.9753C45.6218 88.0059 44.5405 89.3197 43.7857 90.8207C40.9708 96.397 42.2531 101.311 46.0028 105.888C43.1318 107.101 39.8163 107.453 37.7677 110.251C37.3978 110.819 36.8633 111.262 36.2352 111.52C30.9784 113.049 27.382 117.54 22.0486 119.13C18.4368 120.206 13.7624 119.839 11.3205 116.969C9.48655 114.818 6.66151 113.483 6.04337 110.292C5.91565 109.629 4.96035 108.941 4.22982 108.615C2.50823 107.84 1.47117 106.489 0.577164 104.95C0.689553 100.225 0.0152275 95.4744 1.00119 90.7748C1.11358 90.2651 0.822389 89.3833 1.69085 89.3986C2.38051 89.3986 2.47757 90.1428 2.57974 90.7544C3.04973 93.512 5.04718 95.3419 6.85052 97.1666C9.29753 99.6744 12.9808 99.7509 15.5351 98.8283C17.9311 97.9567 20.5109 97.0239 22.9017 95.872C23.6016 95.5305 24.1022 95.2501 23.949 94.4193C23.3462 91.1724 24.9707 89.3782 27.6987 87.9C28.935 87.2272 30.6157 86.8449 31.2747 85.2954C31.7856 84.0721 32.5365 83.8529 33.6758 84.5155C34.3961 84.9386 35.1113 85.3515 35.8725 84.3422C36.8336 82.9861 38.1399 81.9104 39.6566 81.2258C41.1733 80.5413 42.8455 80.2728 44.5009 80.448C45.4102 80.5092 46.9121 80.3002 46.6771 79.3266C46.2123 77.3846 47.3974 77.0227 48.5775 76.3244C50.1357 75.4069 50.1357 73.8166 50.0079 72.2467C49.8802 70.6768 48.6337 70.8654 47.5354 70.7481C46.437 70.6309 45.2978 70.3964 44.93 69.0814Z" fill="#2ECBD8"/>
<path d="M44.9299 69.0812C45.2977 70.3708 46.3807 70.6664 47.4841 70.7887C48.5876 70.9111 49.829 70.697 49.9567 72.2873C50.0844 73.8776 50.0844 75.4271 48.5263 76.365C47.3462 77.0633 46.161 77.4252 46.6259 79.3672C46.8609 80.3408 45.359 80.5498 44.4496 80.4886C42.7943 80.3134 41.122 80.5819 39.6054 81.2664C38.0887 81.951 36.7824 83.0267 35.8212 84.3828C35.0601 85.4022 34.3448 84.9792 33.6245 84.5561C32.4853 83.8935 31.7395 84.1127 31.2235 85.336C30.5645 86.8651 28.8838 87.2678 27.6475 87.9406C24.9246 89.4188 23.295 91.213 23.8978 94.4599C24.051 95.2907 23.5504 95.571 22.8505 95.9126C20.4597 97.0645 17.8799 97.9973 15.4839 98.8689C12.9296 99.7915 9.24633 99.715 6.79931 97.2072C4.99598 95.357 2.99851 93.5526 2.52852 90.795C2.42634 90.1834 2.32929 89.4494 1.63963 89.4392C0.771164 89.4392 1.06235 90.2904 0.949962 90.8154C-0.035997 95.515 0.638344 100.266 0.525955 104.991C0.525955 117.56 0.423785 130.125 0.352265 142.709C-0.199463 116.597 -0.0462054 90.3618 0.352265 64.2134C0.673432 61.7465 1.36218 59.3412 2.3957 57.0774C2.44679 56.9194 2.48254 56.7563 2.5183 56.5932C3.06492 56.4148 2.9321 56.0274 2.80438 55.6451C5.35868 50.1249 8.28079 44.9411 13.8747 41.8471C14.8964 41.8165 15.9181 41.8777 16.3575 40.6442L16.4801 40.7105C17.0657 40.7199 17.6509 40.6721 18.2272 40.5677C22.841 39.2019 27.6446 38.5841 32.4547 38.7379C33.5122 38.7837 34.4726 38.8041 35.1316 39.7573C35.3002 44.3906 35.4432 49.0188 35.6424 53.6521C35.9234 59.6922 38.9017 64.3255 43.382 68.1484C43.4943 68.6836 43.8928 68.7957 44.3628 68.8059L44.9299 69.0812Z" fill="#33E1D9"/>
<path d="M87.7657 88.6495C86.8972 87.049 87.7963 85.4332 87.9343 83.8888C88.0977 82.0793 88.2459 80.2698 88.3072 78.4553C89.5077 78.2718 89.6661 77.3237 89.8142 76.3909C90.6831 70.7102 91.0353 64.9627 90.8666 59.2186C90.7695 54.7331 93.1553 52.5923 97.7019 52.8166C100.542 52.9644 102.504 51.0887 102.606 48.326C102.719 45.4818 102.131 42.5968 102.994 39.7832C103.403 51.1804 101.068 59.9067 110.8 68.2253L110.693 68.3323C109.428 67.8676 108.271 67.1514 107.292 66.227C106.313 65.3026 105.532 64.1894 104.997 62.9548C104.793 62.5216 104.69 61.9354 104.067 61.8844C103.556 61.8437 103.311 62.2514 103.194 62.6541C102.305 65.7124 101.263 68.7197 100.639 71.829C100.302 73.4906 100.128 75.397 101.401 76.9261C102.484 78.231 101.998 79.0108 100.696 79.6888C98.693 80.7082 96.6087 81.6359 94.7696 82.9764C94.2096 83.3635 93.5211 83.5188 92.8487 83.4097C90.6929 82.8643 90.1412 84.2252 89.8551 85.8104C89.6048 87.151 89.1144 88.1857 87.7657 88.6495Z" fill="#29ACDB"/>
<path d="M158.433 43.198C158.499 43.1936 158.564 43.2113 158.619 43.2483C158.673 43.2852 158.714 43.3392 158.734 43.4018C158.852 44.355 159.368 44.8392 160.354 44.773L160.865 45.2368L161.35 45.772H161.375L161.856 46.2817L162.367 46.7915V46.822C162.367 47.0004 162.336 47.1788 162.321 47.3572C164.083 50.5582 166.816 53.7796 164.211 57.5515C163.792 56.2212 163.501 55.1661 163.118 54.1466C162.918 53.6369 162.668 52.8418 161.881 53.2546C160.308 54.0804 158.458 54.3403 157.978 56.7564C157.529 59.0246 158.346 61.3744 157.273 63.5203C156.596 64.8722 156.371 66.4047 156.63 67.8936C157.14 71.5738 155.128 73.7961 151.587 73.8624C150.908 61.5885 147.547 50.1505 140.859 39.7523C141.682 39.9052 142.52 40.262 143.317 40.1754C144.594 40.0479 146.239 41.0826 147.066 39.2018C148.798 38.8858 150.423 40.155 152.175 39.5433H152.231C152.435 40.3996 153.089 40.1906 153.667 40.155C153.733 40.3527 153.87 40.5184 154.053 40.6195C154.236 40.7205 154.45 40.7493 154.653 40.7004L155.409 41.1387L155.541 41.1081L155.633 41.2152L156.241 41.6535C156.241 41.7213 156.257 41.7883 156.286 41.8495C156.315 41.9107 156.358 41.9645 156.411 42.0071C156.464 42.0496 156.526 42.0798 156.592 42.0953C156.658 42.1109 156.727 42.1115 156.793 42.097H156.88L156.665 42.7392C156.757 43.4171 156.88 44.0288 157.687 43.2489L158.433 43.198ZM159.107 49.9619C158.494 50.0638 157.871 50.2473 157.937 51.0068C158.004 51.7663 158.591 51.9243 159.235 51.9192C159.362 51.9368 159.491 51.9261 159.613 51.8878C159.735 51.8495 159.847 51.7846 159.941 51.6977C160.035 51.6109 160.108 51.5043 160.156 51.3857C160.203 51.267 160.224 51.1394 160.216 51.0119C160.247 50.2473 159.822 49.9568 159.107 49.9619ZM152.466 66.7825L153.018 67.5114C153.181 67.3839 153.442 67.2922 153.493 67.1291C153.585 66.8181 153.518 66.4613 153.079 66.4817C152.9 66.5021 152.706 66.6805 152.487 66.7927L152.466 66.7825Z" fill="#199AE5"/>
<path d="M151.592 73.8676C155.133 73.8013 157.14 71.579 156.634 67.8988C156.376 66.4098 156.601 64.8773 157.278 63.5255C158.351 61.3796 157.534 59.0298 157.983 56.7615C158.463 54.3455 160.313 54.0855 161.886 53.2598C162.673 52.8469 162.908 53.637 163.122 54.1518C163.506 55.1712 163.797 56.2263 164.216 57.5567C166.821 53.795 164.093 50.5736 162.325 47.3624L162.836 47.3369C165.061 49.6567 166.653 52.5066 167.46 55.6147C167.684 56.4761 166.841 57.7402 168.405 58.0919C168.472 58.135 168.522 58.2008 168.546 58.2774C168.569 58.354 168.564 58.4364 168.532 58.5099C168.022 61.0177 169.217 63.3012 169.554 65.6917C170.361 71.3241 169.83 76.9564 169.968 82.5837C168.859 82.074 167.204 83.8937 166.586 82.181C165.804 80.0198 163.858 79.7191 162.285 79.1941C160.967 78.7506 159.827 78.3531 158.867 77.3387C157.723 76.1358 156.665 76.039 155.582 77.5987C154.612 78.9716 153.226 79.9973 151.628 80.5244C151.625 78.3021 151.613 76.0831 151.592 73.8676Z" fill="#1E8EE3"/>
<path d="M102.989 39.7829C102.126 42.5965 102.713 45.4815 102.601 48.3257C102.499 51.0883 100.558 52.9641 97.6969 52.8163C93.1502 52.5767 90.7645 54.7328 90.8616 59.2183C91.0303 64.9623 90.6781 70.7098 89.8092 76.3906C89.661 77.3233 89.5027 78.2714 88.3021 78.4549C89.0471 72.0859 89.0694 65.6534 88.3686 59.2794C88.1906 56.9167 88.1684 54.5448 88.3021 52.1791C88.3941 48.7131 87.5359 45.3082 87.7096 41.8268C87.7555 40.8074 87.0659 39.7879 86.7134 38.7328C86.7134 38.4627 86.7491 38.2231 86.7696 37.9275C91.5359 37.6217 96.3073 37.6624 101.074 37.7695C101.227 38.0209 101.38 38.0209 101.533 37.7695C103.092 37.6726 103.316 38.529 102.989 39.7829Z" fill="#24B3D4"/>
<path d="M152.19 39.549C150.438 40.1607 148.813 38.8915 147.081 39.2075C144.057 37.9791 140.89 38.1881 137.733 38.2339C137.12 38.2339 136.879 38.6672 136.788 39.2075C135.137 40.074 135.367 41.7051 135.255 43.1374C134.867 49.3814 136.328 55.7732 133.252 61.8031C131.832 64.5913 130.53 67.201 127.122 67.828V67.7923C132.568 63.1488 135.163 57.3024 134.836 50.1205C134.673 46.4913 134.729 42.8519 134.698 39.2126C134.698 38.2594 134.698 37.1737 136.057 37.291C141.268 37.7395 146.596 37.1584 151.628 39.0902C151.837 39.214 152.027 39.3687 152.19 39.549Z" fill="#29ACDB"/>
<path d="M86.7693 37.9276C86.7693 38.1978 86.7336 38.4373 86.7131 38.733H72.169C68.7615 38.733 68.4652 38.9623 68.3988 42.4794C68.3222 46.6387 68.3988 50.7979 68.3988 54.9521C68.3988 56.9502 67.888 58.7393 66.2686 60.0798C68.5623 53.6676 67.5508 47.0464 67.3822 40.5017C67.326 38.0754 67.9799 37.474 70.3094 37.581C75.7756 37.8257 81.2776 37.8257 86.7693 37.9276Z" fill="#2CBFD6"/>
<path d="M35.1471 39.7168C34.4881 38.7586 33.5277 38.7382 32.4702 38.6974C27.6601 38.5436 22.8565 39.1614 18.2428 40.5273C17.6664 40.6317 17.0813 40.6795 16.4956 40.67C20.9861 37.102 27.9644 37.8819 33.3846 37.4078C35.3003 37.2651 35.5302 38.203 35.1471 39.7168Z" fill="#2ECBD8"/>
<path d="M110.795 68.2256C115.347 70.8251 120.057 70.9067 124.89 69.1227C124.951 69.1838 125.012 69.2501 125.069 69.3164C124.049 70.212 122.832 70.8537 121.516 71.1886C120.199 71.5235 118.822 71.5422 117.498 71.2431C115.092 70.7334 112.185 71.0749 110.688 68.3326L110.795 68.2256Z" fill="#29ACDB"/>
<path d="M168.384 58.0671C166.821 57.7154 167.664 56.4513 167.439 55.5898C168.022 56.2875 168.355 57.1594 168.384 58.0671Z" fill="#1182E3"/>
<path d="M16.3627 40.5986C15.9387 41.8321 14.8863 41.771 13.8799 41.8016C14.5082 41.0013 15.4227 40.7668 16.3627 40.5986Z" fill="#2ECBD8"/>
<path d="M160.354 44.7735C159.368 44.8397 158.852 44.3555 158.734 43.4023C159.423 43.6486 159.998 44.1358 160.354 44.7735Z" fill="#29ACDB"/>
<path d="M65.763 61.0791C65.8396 61.8335 65.9009 62.5777 64.8281 62.649C64.8547 62.3338 64.9527 62.0287 65.1146 61.7568C65.2766 61.4848 65.4982 61.2531 65.763 61.0791Z" fill="#2CBFD6"/>
<path d="M153.666 40.1706C153.089 40.2063 152.435 40.4153 152.231 39.559C152.502 39.5334 152.776 39.576 153.027 39.6828C153.277 39.7896 153.497 39.9573 153.666 40.1706Z" fill="#29ACDB"/>
<path d="M2.80952 55.6152C2.93723 55.9975 3.07006 56.3849 2.52344 56.5633C2.61539 56.232 2.71245 55.916 2.80952 55.6152Z" fill="#FAFBFC"/>
<path d="M66.2687 60.0547C66.3198 60.5134 66.2687 60.9161 65.7578 61.0741C65.7248 60.8722 65.7564 60.665 65.8481 60.482C65.9398 60.299 66.087 60.1495 66.2687 60.0547Z" fill="#2CBFD6"/>
<path d="M44.3837 68.7659C43.9137 68.7659 43.5152 68.6436 43.4028 68.1084L44.3837 68.7659Z" fill="#2ECBD8"/>
<path d="M124.89 69.1225L125.87 68.5771L126.08 68.7912L125.058 69.301C125.012 69.25 124.951 69.1837 124.89 69.1225Z" fill="#29ACDB"/>
<path d="M154.688 40.7112C154.485 40.7602 154.271 40.7313 154.089 40.6303C153.906 40.5293 153.768 40.3635 153.702 40.1658C153.903 40.1422 154.106 40.1821 154.283 40.28C154.46 40.3779 154.602 40.5287 154.688 40.7112Z" fill="#29ACDB"/>
<path d="M156.731 42.7702L156.946 42.1279L157.85 42.6835L157.697 42.8466L156.731 42.7702Z" fill="#29ACDB"/>
<path d="M158.433 43.1984L157.748 43.3003C157.732 43.148 157.708 42.9966 157.677 42.8467L157.83 42.6836L158.433 43.1984Z" fill="#29ACDB"/>
<path d="M156.839 42.1124C156.772 42.1269 156.704 42.1263 156.637 42.1108C156.571 42.0952 156.509 42.065 156.457 42.0225C156.404 41.9799 156.361 41.9261 156.332 41.8649C156.302 41.8037 156.287 41.7368 156.287 41.6689L156.839 42.1124Z" fill="#29ACDB"/>
<path d="M101.559 37.7748C101.406 38.0262 101.252 38.0262 101.099 37.7748C101.168 37.7324 101.248 37.71 101.329 37.71C101.41 37.71 101.49 37.7324 101.559 37.7748Z" fill="#2CBFD6"/>
<path d="M125.871 68.577L126.504 68.1846L126.611 68.2967L126.1 68.8064L125.871 68.577Z" fill="#29ACDB"/>
<path d="M126.504 68.1845L127.112 67.792V67.8277L126.601 68.2966L126.504 68.1845Z" fill="#29ACDB"/>
<path d="M2.51835 56.5527C2.48259 56.7158 2.44683 56.879 2.39575 57.037C2.35964 56.9139 2.33568 56.7875 2.32422 56.6598C2.32422 56.6343 2.45194 56.5884 2.51835 56.5527Z" fill="#FAFBFC"/>
<path d="M162.862 47.3476L162.351 47.3731C162.351 47.1947 162.377 47.0163 162.397 46.8379L162.862 47.3476Z" fill="#29ACDB"/>
<path d="M169.467 154.877C168.869 158.883 168.645 162.981 166.029 166.407C165.094 167.635 165.314 169.103 165.564 170.525L165.482 170.673C164.394 170.709 164.302 171.402 164.461 172.243V172.284C162.617 173.079 160.374 173.553 161.038 176.417L160.972 176.489C159.914 176.183 159.138 176.759 158.479 177.401C156.397 179.479 153.934 181.139 151.224 182.289C150.632 182.534 150.1 182.697 150.167 183.467H150.09C146.514 183.253 143.245 184.578 139.873 185.424H138.305L137.83 184.96C134.535 184.96 131.24 184.863 127.945 184.96C126.305 185.006 124.583 184.451 123.025 185.414H120.971C120.205 184.609 119.214 184.95 118.32 184.945C109.673 184.918 101.024 184.918 92.3734 184.945C90.4219 184.945 88.4959 185.001 86.7539 183.885C88.5368 181.336 91.7501 180.826 93.9059 178.788L101.058 174.2C103.004 174.353 104.557 174.012 105.952 172.263C107.847 169.883 110.228 167.885 112.399 165.729C112.767 165.362 113.17 165 113.732 165.168C114.294 165.336 114.34 165.922 114.33 166.432C114.349 167.613 114.241 168.792 114.008 169.949C113.201 173.461 116.961 177.707 119.914 176.575C121.038 176.152 122.259 175.862 123.383 175.388C122.361 172.941 122.907 171.539 125.579 170.739C126.491 170.513 127.33 170.059 128.018 169.419C128.705 168.78 129.218 167.976 129.508 167.085C131.5 161.024 137.957 164.062 141.406 160.417C143.122 158.618 145.109 156.967 146.376 154.882C147.138 153.633 147.699 152.558 148.992 151.722C150.688 150.631 152.42 149.617 151.766 146.732C151.153 144.005 154.381 141.079 157.232 141.074C159.276 141.074 161.319 141.196 163.362 141.038C165.84 140.844 167.281 141.359 167 144.305C166.862 145.733 167.061 147.562 169.488 146.67V149.219C167.378 149.729 168.195 151.681 167.679 152.95C167.23 154.056 166.193 155.611 167.276 156.431C168.481 157.415 168.108 154.653 169.467 154.877Z" fill="#096FEF"/>
<path d="M28.8994 185.592C21.3336 184.573 14.6975 181.703 9.59912 175.816C13.8444 172.467 18.7946 170.311 23.4383 167.625C22.3808 169.878 19.7192 170.464 18.4114 172.436C18.0334 173.007 16.6847 173.068 17.2467 174.047C17.6758 174.796 18.7282 174.959 19.5609 174.71C21.0317 174.297 22.5654 174.156 24.0871 174.292C26.9377 174.465 29.7423 175.255 32.644 174.801C33.9263 174.598 35.1983 174.74 36.0923 175.913C36.3622 176.241 36.7102 176.497 37.1045 176.658C37.4989 176.818 37.9271 176.877 38.3503 176.83C40.7258 176.794 43.1064 176.83 45.5023 176.83C46.0521 176.839 46.5968 176.724 47.0963 176.494C47.5958 176.265 48.0375 175.927 48.3887 175.505C49.6963 174.109 51.4036 173.15 53.2778 172.757C55.1519 172.365 57.1017 172.559 58.8613 173.313C61.3083 174.409 64.3939 175.27 66.4476 173.92C68.9099 172.299 71.3161 171.947 73.9776 171.713C74.9994 171.616 76.0211 171.366 76.0211 169.959C76.0211 166.85 76.0211 166.85 79.122 167.66C79.122 168.542 80.2306 169.73 79.2088 170.209C76.5524 171.504 74.9636 173.996 72.6596 175.551C71.127 176.57 69.9827 177.172 70.8103 179.185C71.6328 180.821 69.0989 182.855 67.8065 181.484C65.482 178.935 63.0963 179.888 60.4399 180.944C58.7694 181.611 58.9073 182.167 60.1027 183.232C58.2432 183.66 56.6186 183.283 55.0452 183.828C54.1205 184.15 53.5126 184.379 53.5995 185.46L28.8994 185.592ZM20.8431 181.514C20.6235 180.286 19.1931 180.225 18.6158 179.292C18.1765 178.584 17.7116 177.207 16.6541 178.155C15.0193 179.832 18.8099 181.489 20.0156 182.106C20.5315 182.376 20.7563 182.024 20.8431 181.514Z" fill="#1182E3"/>
<path d="M23.4381 167.599C18.7995 170.3 13.8442 172.441 9.60402 175.79C0.0969231 166.432 0.183771 155.04 0.362572 142.659L0.515824 116.663C1.25657 117.346 0.970486 118.238 0.975594 119.049C1.00625 123.34 0.975594 127.632 0.975594 131.924C0.607775 139.702 1.73679 147.44 1.51712 155.218C1.4456 157.843 3.95391 161.503 5.81343 161.334C8.73555 161.08 10.1864 162.808 11.6628 164.739C12.1736 165.407 12.5772 166.151 13.6398 166.08C14.2579 166.034 15.1724 165.891 15.1417 166.926C15.1417 167.757 14.4776 168.037 13.7369 168.083C11.3358 168.226 12.2043 170.525 11.4125 171.722C11.1621 172.105 12.1328 172.905 12.5976 172.36C14.544 170.102 17.7369 169.424 19.1928 166.33C20.0766 164.459 21.4764 161.916 24.4598 161.982C25.4253 163.103 25.9617 161.202 26.9017 161.666C28.9145 162.66 30.2734 161.273 31.617 160.162C33.2977 158.771 34.7639 157.104 36.5519 155.865C38.3399 154.627 39.4229 152.297 41.8699 151.833C41.7728 152.853 40.9861 153.459 40.2965 154.051C36.2096 157.563 32.1227 161.034 28.0358 164.52C26.289 165.175 24.716 166.222 23.4381 167.578V167.599Z" fill="#29ACDB"/>
<path d="M28.8994 185.592C45.298 185.48 61.6966 185.407 78.0952 185.373L81.2625 185.618C76.3583 186.127 71.4387 185.867 66.5293 185.908C55.3211 186 44.1179 185.995 32.9097 185.995C31.5712 185.969 30.1919 186.168 28.8994 185.592Z" fill="#29ACDB"/>
<path d="M138.305 185.434H139.873L141.539 185.669C140.54 185.818 139.534 185.916 138.525 185.964C122.606 185.755 106.622 186.27 90.7339 185.638C106.412 185.128 122.131 185.572 137.825 185.454H138.065L138.305 185.434Z" fill="#29ACDB"/>
<path d="M120.972 185.419C110.908 185.551 100.813 185.159 90.7593 185.623L81.2879 185.592L78.1206 185.347C78.1206 185.215 78.1206 185.077 78.1206 184.94C81.0325 184.761 84.0619 185.541 86.8052 183.89C88.5268 185.006 90.4528 184.955 92.4247 184.95C101.072 184.919 109.721 184.919 118.371 184.95C119.189 184.955 120.18 184.613 120.972 185.419Z" fill="#0972ED"/>
<path d="M150.132 183.467C150.065 182.697 150.596 182.534 151.189 182.289C153.899 181.138 156.361 179.479 158.443 177.401C159.102 176.759 159.879 176.183 160.936 176.489C158.102 179.825 154.343 182.253 150.132 183.467Z" fill="#1182E3"/>
<path d="M141.539 185.653L139.874 185.419C143.245 184.573 146.515 183.247 150.091 183.462C148.536 184.362 146.799 184.902 145.008 185.042C144.831 184.964 144.632 184.95 144.446 185.002C144.26 185.054 144.097 185.169 143.986 185.327L141.539 185.653Z" fill="#1182E3"/>
<path d="M161.003 176.417C160.338 173.552 162.581 173.078 164.425 172.283C163.652 173.927 162.475 175.349 161.003 176.417Z" fill="#1182E3"/>
<path d="M164.435 172.243C164.302 171.402 164.394 170.714 165.457 170.673C165.416 170.994 165.303 171.303 165.126 171.575C164.949 171.846 164.713 172.075 164.435 172.243Z" fill="#1182E3"/>
<path d="M144.006 185.327C144.117 185.169 144.28 185.055 144.466 185.003C144.652 184.951 144.851 184.964 145.028 185.042L144.006 185.327Z" fill="#29ACDB"/>
<path d="M169.467 146.721C167.041 147.613 166.841 145.783 166.979 144.356C167.26 141.41 165.82 140.895 163.342 141.089C161.299 141.247 159.255 141.114 157.212 141.125C154.361 141.125 151.133 144.055 151.746 146.782C152.399 149.667 150.668 150.682 148.972 151.773C147.679 152.608 147.117 153.684 146.356 154.933C145.089 157.018 143.102 158.669 141.385 160.468C137.942 164.113 131.47 161.08 129.487 167.135C129.201 168.03 128.692 168.837 128.006 169.48C127.32 170.123 126.482 170.581 125.569 170.81C122.897 171.611 122.335 173.012 123.372 175.459C122.249 175.933 121.028 176.224 119.904 176.647C116.951 177.758 113.191 173.512 113.998 170.02C114.231 168.863 114.339 167.684 114.32 166.503C114.32 165.994 114.346 165.428 113.722 165.239C113.099 165.051 112.757 165.433 112.389 165.8C110.218 167.956 107.837 169.954 105.942 172.334C104.547 174.083 102.994 174.424 101.048 174.271C101.234 173.995 101.444 173.736 101.676 173.497C107.296 168.695 112.924 163.904 118.56 159.123C121.518 156.625 123.873 153.557 126.586 150.83C127.235 150.774 128.282 151.084 128.399 150.366C128.808 147.929 130.954 146.854 132.297 145.218C134.989 141.945 136.895 138.082 139.858 135.023C142.305 133.79 144.839 132.684 146.029 129.926C146.473 128.871 147.255 128.805 147.975 129.692C149.39 131.19 148.946 133.739 151.674 132.205C153.901 131.042 156.859 131.471 158.596 129.106C158.709 128.953 159.25 129.009 159.551 129.106C162.795 130.125 166.193 129.59 169.467 129.941V146.721Z" fill="#0972ED"/>
<path d="M169.462 129.906C166.162 129.554 162.791 130.1 159.547 129.07C159.245 128.973 158.704 128.917 158.591 129.07C156.854 131.435 153.897 131.007 151.669 132.169C148.941 133.698 149.381 131.15 147.971 129.656C147.25 128.769 146.469 128.836 146.024 129.891C144.834 132.664 142.3 133.77 139.853 134.988C139.935 133.8 141.038 132.613 139.853 131.42C139.994 130.588 140.346 129.805 140.875 129.147C144.359 123.866 146.331 117.907 148.538 112.061C150.208 111.133 150.765 109.793 150.07 107.983C150.125 105.907 150.469 103.848 151.092 101.867C152.844 101.326 152.803 99.5372 153.57 98.2986C154.147 97.376 153.764 95.4646 155.199 95.592C156.507 95.699 156.277 97.534 156.492 98.5891C156.814 100.118 157.467 101.189 159 101.265C160.742 101.357 161.728 102.121 162.52 103.625C163.133 104.787 164.231 105.664 164.844 103.533C165.355 101.709 166.086 102.279 166.837 103.273C167.588 104.267 168.119 105.282 169.468 105.419L169.462 129.906Z" fill="#127EE9"/>
<path d="M169.463 105.455C168.114 105.317 167.542 104.252 166.832 103.309C166.122 102.366 165.36 101.744 164.839 103.569C164.226 105.699 163.128 104.823 162.515 103.661C161.723 102.157 160.737 101.392 158.995 101.301C157.462 101.224 156.809 100.159 156.487 98.6246C156.272 97.5694 156.487 95.7345 155.194 95.6274C153.759 95.5 154.142 97.4114 153.565 98.334C152.798 99.5624 152.839 101.352 151.087 101.902C151.179 97.126 152.619 92.4468 152.109 87.63C151.621 85.2846 151.449 82.8848 151.598 80.494C153.196 79.9669 154.582 78.9412 155.552 77.5682C156.635 76.0085 157.692 76.1054 158.837 77.3083C159.797 78.3277 160.936 78.7202 162.254 79.1636C163.828 79.6734 165.774 79.9894 166.556 82.1506C167.174 83.8632 168.829 82.0282 169.938 82.5533C169.258 90.1786 169.503 97.8243 169.463 105.455Z" fill="#1488E5"/>
<path d="M169.467 154.877C168.109 154.653 168.487 157.426 167.255 156.488C166.172 155.667 167.209 154.113 167.659 153.007C168.17 151.737 167.358 149.775 169.467 149.275V154.877Z" fill="#0972ED"/>
<path d="M151.623 80.499C151.474 82.8898 151.646 85.2896 152.134 87.635C151.747 87.6339 151.374 87.7788 151.09 88.0407C150.806 88.3026 150.631 88.662 150.601 89.0469C150.336 90.4487 149.876 91.7688 150.469 93.2572C150.707 93.8168 150.74 94.4427 150.56 95.024C150.381 95.6053 150.001 96.1044 149.488 96.4327C148.221 97.1871 148.098 95.607 147.546 95.0208C146.091 93.4916 145.294 93.5885 144.481 95.556C143.797 97.1973 143.674 99.1597 141.549 100.505C142.213 96.5143 144.016 93.3693 145.411 90.1275C145.478 89.9442 145.584 89.7771 145.72 89.637C145.856 89.4969 146.02 89.3869 146.202 89.3144C146.384 89.2418 146.579 89.2081 146.774 89.2156C146.97 89.2231 147.161 89.2716 147.337 89.3579C148.318 89.8064 148.926 89.5719 149.38 88.5933C149.835 87.6146 149.268 86.952 148.599 86.4066C147.194 85.2649 145.34 85.2649 143.725 84.6226C141.309 83.6593 139.306 83.4859 138.617 86.9673C138.274 88.6596 136.318 88.6443 135.424 87.0845C135.041 86.4168 134.913 85.5146 133.891 85.7644C132.997 85.9886 133.329 86.8756 133.273 87.5025C133.202 88.3486 132.946 89.0571 131.986 89.0724C129.467 88.8889 132.348 85.6828 128.236 85.6064C127.557 85.5809 126.785 85.6777 126.438 84.9437C126.014 84.0568 126.826 83.802 127.368 83.4146C127.817 83.119 128.287 82.65 128.103 82.1811C127.49 80.5908 127.592 78.3327 125.789 77.7109C124.144 77.1451 121.641 76.5283 120.588 78.2971C118.632 81.5745 115.189 80.0097 112.609 81.0291C110.42 81.7944 108.082 82.0336 105.784 81.7274L109.794 84.5716C109.651 85.2852 109.513 85.9988 109.37 86.7073V86.7328C108.588 86.6003 108.261 86.9367 108.348 87.7064C106.908 87.6045 106.703 88.5066 106.775 89.6331C106.611 89.8421 106.453 90.0562 106.295 90.2652C106.294 90.3466 106.276 90.4269 106.241 90.5007C106.207 90.5746 106.157 90.6403 106.095 90.6933L105.753 91.203C104.936 91.0501 104.731 91.8555 104.22 92.1664C102.177 92.1664 100.072 92.3856 98.0901 91.6567C97.7061 91.3867 97.4313 90.9889 97.3152 90.5347C97.1991 90.0806 97.2492 89.6 97.4567 89.1795C97.661 88.6698 97.4567 88.2059 96.6802 88.3129C95.1476 88.5168 92.1642 92.0746 91.9292 93.665C91.5767 96.0504 93.3596 98.2167 92.4962 100.628C92.2561 101.295 92.8538 102.33 91.919 102.667C90.6163 103.115 91.3264 101.265 90.2178 101.137C89.661 103.105 88.818 104.97 88.864 107.142C88.9202 109.69 87.781 110.832 85.334 111.051C86.463 104.639 86.8666 98.1555 87.3366 91.6822C87.5103 90.6627 87.6891 89.6433 87.8474 88.6239C89.2012 88.16 89.6916 87.1253 89.9317 85.7899C90.2178 84.2046 90.7695 82.8437 92.9254 83.3891C93.5977 83.4982 94.2863 83.3429 94.8462 82.9558C96.6955 81.6153 98.7696 80.7131 100.772 79.6682C102.075 78.9903 102.56 78.2104 101.477 76.9055C100.215 75.3764 100.379 73.4599 100.716 71.8084C101.344 68.7042 102.386 65.6918 103.27 62.6335C103.388 62.2308 103.638 61.8231 104.144 61.8638C104.767 61.9097 104.869 62.501 105.074 62.9343C105.594 64.1695 106.36 65.2867 107.325 66.2188C108.29 67.1508 109.434 67.8784 110.688 68.3576C112.185 71.0999 115.092 70.7737 117.498 71.2681C118.823 71.5621 120.199 71.5385 121.513 71.1992C122.828 70.8598 124.043 70.2144 125.058 69.3159L126.08 68.8062L126.591 68.2965L127.102 67.8275C130.52 67.2006 131.822 64.5908 133.232 61.8027C136.297 55.7728 134.846 49.3809 135.235 43.1369C135.322 41.7046 135.092 40.0786 136.767 39.207L140.854 39.7575C147.531 50.1557 150.893 61.5937 151.582 73.8676C151.609 76.0798 151.623 78.2903 151.623 80.499ZM148.951 92.3448C148.943 92.264 148.919 92.1856 148.88 92.1144C148.841 92.0432 148.787 91.9805 148.724 91.9301C148.66 91.8797 148.586 91.8426 148.508 91.8211C148.429 91.7995 148.347 91.7938 148.267 91.8045C146.714 91.9931 148.992 94.037 148.941 92.3448H148.951Z" fill="#20A6DC"/>
<path d="M0.986138 131.95C0.986138 127.658 0.986138 123.367 0.986138 119.075C0.986138 118.264 1.26711 117.372 0.526367 116.689C0.526367 112.785 0.526367 108.877 0.526367 104.966C1.42037 106.495 2.45741 107.856 4.17901 108.631C4.90954 108.957 5.86484 109.65 5.99255 110.308C6.61069 113.498 9.43576 114.834 11.2697 116.985C13.7116 119.855 18.386 120.222 21.9978 119.146C27.3312 117.556 30.9276 113.07 36.1844 111.536C36.8125 111.278 37.347 110.835 37.7169 110.267C39.7604 107.469 43.081 107.117 45.952 105.904C46.1257 106.057 46.3045 106.204 46.4628 106.352L47.1372 106.893L50.468 108.569C50.5906 109.706 51.7758 111.021 49.9265 111.837C45.8396 113.631 45.6353 117.862 44.5216 121.256C43.9034 123.142 43.6429 124.055 41.6097 123.805C37.298 123.295 34.8102 126.353 32.0413 128.78C31.7194 129.06 31.6939 129.697 31.5815 130.181C30.9021 133.173 29.1754 134.371 26.1153 134.03C25.4419 133.951 24.7594 134.006 24.1076 134.193C21.5023 135.008 18.7794 134.703 16.1382 134.855C14.4371 134.947 12.6644 134.805 10.9223 134.988C10.0641 135.08 9.38978 134.703 8.64903 134.193C6.40125 132.669 3.92358 131.42 0.986138 131.95Z" fill="#2CBFD6"/>
<path d="M87.2548 91.6923C86.744 100.072 85.947 108.431 84.1897 116.668C83.3314 116.714 83.0454 116.296 82.5907 115.516C80.9304 112.677 79.2752 109.369 75.2548 109.767C72.5268 110.032 70.5548 108.865 68.256 107.871C66.4526 107.091 65.9775 104.471 63.5765 104.868C63.7699 104.498 63.9973 104.147 64.256 103.818C67.5255 100.357 68.164 93.2724 63.7911 90C63.5925 89.8429 63.4333 89.6418 63.326 89.4127C63.2187 89.1835 63.1663 88.9327 63.1729 88.6799C64.4654 88.8277 65.5791 88.9806 66.7489 87.8083C67.8064 86.7481 69.3032 86.5544 70.0184 88.685C71.3416 92.5078 75.2394 92.3804 78.1922 93.619C79.0658 93.9809 79.5511 92.8697 80.1335 92.2785C81.1552 91.259 81.7222 91.8605 82.0901 92.9309C82.2842 93.5069 81.099 94.6996 82.5549 94.5926C83.454 94.5263 84.8589 94.6996 85.2676 93.2571C85.5537 92.3142 86.0594 91.5598 87.2548 91.6923Z" fill="#2CBFD6"/>
<path d="M63.1731 88.6752C63.1665 88.928 63.2189 89.1789 63.3262 89.408C63.4335 89.6371 63.5927 89.8382 63.7912 89.9954C68.1642 93.2678 67.5256 100.353 64.2561 103.814C63.9975 104.142 63.77 104.494 63.5767 104.864C60.0006 108.819 55.5408 109.716 50.5089 108.574L47.173 106.898L46.5037 106.357C46.3249 106.209 46.1461 106.062 45.9929 105.909C42.2227 101.321 40.9609 96.4178 43.7758 90.8415C44.5306 89.3405 45.6119 88.0267 46.9408 86.9961C48.2696 85.9655 49.8125 85.244 51.4565 84.8845C53.1006 84.5249 54.8044 84.5364 56.4435 84.918C58.0826 85.2995 59.6156 86.0416 60.9304 87.09C61.6252 87.666 62.417 88.1502 63.1731 88.6752ZM57.6609 100.771L58.0185 100.394C58.0885 100.355 58.1466 100.298 58.1863 100.229C58.2259 100.16 58.2457 100.081 58.2433 100.001C59.6124 97.6513 59.1271 95.6226 56.7924 93.9406C54.749 92.4777 51.7605 92.8294 49.7988 94.751C48.4143 96.1171 48.6545 98.1304 50.4782 100.358L50.514 100.404C50.7667 101.007 51.1924 101.523 51.7378 101.885C52.2831 102.248 52.9237 102.442 53.5791 102.443L53.8039 102.539L54.044 102.494C55.643 102.861 56.6903 102.05 57.5638 100.857L57.6609 100.771Z" fill="#EAEAEA"/>
<path d="M140.895 39.7578L136.808 39.2073C136.9 38.667 137.14 38.249 137.753 38.2337C140.91 38.1675 144.078 37.9789 147.102 39.2073C146.274 41.0881 144.629 40.0534 143.352 40.1808C142.535 40.2573 141.697 39.9107 140.895 39.7578Z" fill="#1182E3"/>
<path d="M159.107 49.9619C159.822 49.9619 160.246 50.2474 160.216 51.0119C160.224 51.1394 160.203 51.2671 160.156 51.3857C160.108 51.5043 160.035 51.6109 159.941 51.6978C159.847 51.7846 159.735 51.8495 159.613 51.8878C159.491 51.9261 159.362 51.9369 159.235 51.9192C158.591 51.9192 157.993 51.7306 157.937 51.0068C157.881 50.283 158.494 50.0639 159.107 49.9619Z" fill="#1E8EE3"/>
<path d="M152.486 66.7929C152.706 66.6808 152.9 66.5024 153.099 66.4922C153.539 66.4922 153.61 66.8286 153.513 67.1395C153.462 67.3026 153.202 67.3944 153.038 67.5218L152.486 66.7929Z" fill="#1E8EE3"/>
<path d="M157.677 42.8725C157.708 43.0224 157.732 43.1738 157.748 43.3261C156.926 44.0856 156.803 43.4739 156.727 42.8164L157.677 42.8725Z" fill="#1E8EE3"/>
<path d="M86.7439 183.89C84.0108 185.541 80.9814 184.761 78.0593 184.94C71.1167 184.94 64.1741 184.94 57.2367 184.94C56.3427 184.94 55.3516 184.608 54.5904 185.414H53.5687C53.4614 184.333 54.0796 184.104 55.0145 183.783C56.5879 183.237 58.2124 183.614 60.072 183.186C58.851 182.121 58.7386 181.565 60.4091 180.898C63.0656 179.843 65.4513 178.859 67.7757 181.438C69.0682 182.809 71.6021 180.775 70.7796 179.139C69.952 177.126 71.0912 176.54 72.6289 175.505C74.9329 173.95 76.5216 171.458 79.1781 170.163C80.1998 169.653 79.0657 168.481 79.0912 167.615C79.3077 167.151 79.6272 166.742 80.0255 166.42C80.4238 166.097 80.8905 165.87 81.3901 165.754C84.2254 165.046 85.5945 162.905 86.7593 160.524H90.3353C90.9738 162.385 92.5677 161.962 93.947 162.008C95.5129 162.03 97.055 162.393 98.4665 163.07C99.8779 163.746 101.125 164.722 102.121 165.927C103.173 167.151 103.919 169.286 102.632 170.005C100.328 171.325 98.933 173.191 97.4924 175.194C97.4264 175.301 97.338 175.393 97.2332 175.464C97.1284 175.534 97.0097 175.581 96.8851 175.601C96.7605 175.621 96.633 175.615 96.5112 175.581C96.3895 175.548 96.2763 175.489 96.1795 175.408C95.8015 174.649 97.334 174.236 96.251 173.16C95.0658 174.954 93.9317 176.621 93.9011 178.808C91.7452 180.821 88.5319 181.346 86.7439 183.89Z" fill="#127EE9"/>
<path d="M93.8959 178.808C93.9265 176.621 95.0606 174.955 96.2458 173.16C97.3289 174.236 95.7963 174.649 96.1743 175.408C96.2711 175.489 96.3843 175.548 96.506 175.581C96.6278 175.615 96.7553 175.621 96.8799 175.601C97.0045 175.581 97.1232 175.534 97.228 175.464C97.3328 175.393 97.4212 175.302 97.4872 175.194C98.9278 173.191 100.322 171.325 102.626 170.005C103.893 169.281 103.137 167.146 102.116 165.928C101.12 164.722 99.8727 163.747 98.4613 163.07C97.0499 162.393 95.5077 162.03 93.9419 162.008C92.5625 161.962 90.9687 162.385 90.3301 160.525C93.2164 160.489 96.0824 160.377 98.5038 158.486C102.674 156.883 106.719 154.975 110.606 152.777L111.265 152.349L111.362 152.231H111.51L112.251 151.722C112.721 151.757 113.13 151.691 113.232 151.131V151.166L113.825 150.733C114.586 150.774 115.357 150.804 115.357 149.713C118.673 149.78 119.955 148.75 120.389 145.605L120.42 145.58C121.441 145.809 122.146 145.417 122.632 144.474C122.836 144.015 123.184 143.635 123.624 143.39C124.063 143.146 124.57 143.05 125.069 143.118C127.306 143.842 127.383 146.008 128.134 147.705C128.067 148.939 127.178 149.744 126.601 150.764C123.888 153.49 121.533 156.559 118.576 159.057C112.925 163.814 107.297 168.605 101.692 173.431C101.459 173.669 101.249 173.929 101.063 174.205L93.8959 178.808Z" fill="#1488E5"/>
<path d="M137.83 185.439H123.015C124.548 184.466 126.295 185.031 127.935 184.986C131.23 184.894 134.525 184.986 137.82 184.986C137.83 185.123 137.83 185.281 137.83 185.439Z" fill="#0972ED"/>
<path d="M137.83 185.44C137.83 185.282 137.83 185.124 137.83 184.971L138.305 185.435H138.065L137.83 185.44Z" fill="#1182E3"/>
<path d="M86.7438 160.524C85.5791 162.905 84.1895 165.045 81.3747 165.754C80.8751 165.869 80.4084 166.097 80.0101 166.419C79.6118 166.742 79.2923 167.15 79.0758 167.614C76.0107 166.799 75.9749 166.799 75.9749 169.908C75.9749 171.315 74.9532 171.565 73.9315 171.662C71.2699 171.896 68.8638 172.248 66.4014 173.869C64.358 175.219 61.2622 174.378 58.8151 173.262C57.0556 172.508 55.1058 172.314 53.2316 172.706C51.3575 173.099 49.6502 174.058 48.3425 175.454C47.9913 175.876 47.5497 176.214 47.0502 176.443C46.5507 176.673 46.006 176.787 45.4562 176.779C43.0807 176.779 40.7001 176.779 38.3041 176.779C37.881 176.826 37.4527 176.767 37.0584 176.606C36.664 176.446 36.3161 176.19 36.0462 175.862C35.1419 174.689 33.8801 174.547 32.5978 174.75C29.6962 175.214 26.8915 174.424 24.041 174.241C22.5193 174.105 20.9855 174.246 19.5147 174.659C18.682 174.908 17.6297 174.745 17.2005 173.996C16.6386 173.017 17.9873 172.977 18.3653 172.385C19.6731 170.413 22.3347 169.837 23.3922 167.574C25.4356 167.329 27.1623 166.6 27.9899 164.515C28.8328 164.515 29.6349 164.566 30.3807 163.939C33.216 161.564 36.133 159.275 38.9478 156.875C39.801 156.146 40.6797 156.314 41.6043 156.125C44.6439 155.504 47.7091 155.289 50.764 154.907C51.3566 154.836 51.6784 154.239 52.0514 153.765C52.9403 152.644 53.9722 151.727 55.4486 152.919C56.2251 153.541 56.8892 152.726 57.6146 152.807C60.3631 153.317 62.2635 155.973 65.2775 155.825H65.3082C65.3952 156.013 65.5438 156.166 65.7295 156.258C65.9151 156.351 66.1269 156.378 66.3299 156.334L67.2903 156.844C68.4602 158.465 70.1869 158.445 71.9238 158.373C72.2916 159.041 72.8893 158.934 73.487 158.837L73.5586 158.796C73.7067 159.265 74.1205 159.306 74.5139 159.464C78.5292 161.126 82.6927 160.244 86.7438 160.524Z" fill="#1488E5"/>
<path d="M20.8429 181.514C20.7612 182.024 20.5364 182.371 20.0153 182.106C18.8148 181.489 15.0191 179.832 16.6539 178.155C17.7114 177.207 18.1865 178.584 18.6156 179.292C19.1878 180.23 20.6182 180.291 20.8429 181.514Z" fill="#127EE9"/>
<path d="M50.5088 108.575C55.5408 109.717 59.9954 108.819 63.5766 104.864C65.9776 104.466 66.4527 107.086 68.256 107.866C70.5549 108.886 72.5268 110.027 75.2548 109.762C79.2753 109.365 80.9305 112.673 82.5908 115.512C83.0454 116.292 83.3315 116.71 84.1898 116.664C84.3941 118.621 83.6482 120.451 83.4286 122.352C83.0505 125.66 80.9305 128.301 80.1029 131.43C78.463 133.026 77.4822 135.212 75.546 136.553C72.3991 136.92 72.0977 141.523 68.9048 141.14C68.1539 140.6 68.7005 139.611 68.2714 139.102C67.5 138.194 66.9482 135.911 65.5689 136.935C63.0146 138.821 61.2419 137.894 59.224 136.426C58.4169 135.85 58.0184 136.466 57.6915 137.083L56.6391 137.144L56.6084 137.098L56.6698 135.569C57.0171 135.457 57.6455 135.452 57.3747 134.927C57.0222 134.239 56.2406 134.636 55.648 134.545C54.7591 134.326 54.7285 132.975 53.6404 133.016C53.5811 132.981 53.5362 132.927 53.5137 132.862C53.4912 132.798 53.4926 132.727 53.5177 132.664C53.5995 131.486 53.6148 130.35 52.1435 129.957L51.0196 128.428L50.5548 127.918L49.0222 126.695C47.224 125.492 45.3951 124.85 43.464 126.44V126.415L42.9225 126.924C38.0949 132.99 45.2469 138.867 48.542 143.643C48.542 144.663 48.6595 145.713 47.4896 146.258C47.1269 145.31 47.367 144 45.957 143.709C45.8651 142.873 45.5688 142.206 44.5675 142.297C44.404 142.297 44.1179 142.649 44.1435 142.782C44.358 143.801 45.2061 143.669 45.9519 143.709C46.0898 145.381 45.5688 146.141 43.7603 145.458C43.2916 145.26 42.7844 145.169 42.2759 145.193C41.7675 145.217 41.2709 145.354 40.8229 145.595C38.1766 147.028 36.2252 149.418 34.2583 151.447C30.9582 154.898 28.2353 158.929 24.5111 162.049C21.5277 161.983 20.128 164.526 19.2442 166.397C17.7882 169.491 14.5954 170.169 12.649 172.427C12.1841 172.972 11.2135 172.172 11.4638 171.79C12.2607 170.592 11.3872 168.293 13.7882 168.15C14.529 168.104 15.188 167.824 15.1931 166.993C15.1931 165.974 14.3093 166.101 13.6911 166.147C12.6286 166.218 12.2199 165.474 11.7141 164.806C10.2377 162.875 8.78689 161.147 5.86477 161.402C4.00524 161.57 1.49692 157.91 1.56844 155.285C1.78811 147.507 0.659111 139.769 1.02693 131.991C3.96437 131.481 6.44205 132.71 8.7307 134.239C9.49699 134.749 10.1458 135.126 11.004 135.034C12.746 134.851 14.5187 134.993 16.2199 134.902C18.861 134.769 21.5839 135.054 24.1893 134.239C24.841 134.052 25.5235 133.997 26.197 134.076C29.2621 134.417 30.9837 133.219 31.6632 130.227C31.7756 129.743 31.8011 129.106 32.1229 128.826C34.8918 126.389 37.3797 123.321 41.6913 123.851C43.7348 124.101 43.9851 123.188 44.6033 121.302C45.7169 117.908 45.9162 113.657 50.0081 111.883C51.8166 111.027 50.6314 109.711 50.5088 108.575Z" fill="#24B3D4"/>
<path d="M47.459 146.237C48.6288 145.692 48.4807 144.621 48.5113 143.622C49.6863 144.641 51.1218 145.447 51.6123 147.088C51.7247 147.598 52.1231 147.715 52.5727 147.679L52.6238 147.71C52.7975 149.535 54.1563 149.968 55.6276 150.259H55.6736C55.648 151.324 56.3684 151.319 57.1244 151.278L57.1857 151.314L57.6966 151.752H57.7426L57.6506 152.828C56.9252 152.746 56.2611 153.562 55.4846 152.94C54.0082 151.762 52.9763 152.664 52.0874 153.786C51.7144 154.26 51.3926 154.856 50.8 154.928C47.7348 155.31 44.6697 155.524 41.6403 156.146C40.7156 156.334 39.837 156.146 38.9838 156.895C36.169 159.296 33.252 161.584 30.4167 163.96C29.6708 164.587 28.8841 164.541 28.0259 164.536C32.1128 161.049 36.2252 157.578 40.2865 154.066C40.9762 153.475 41.7629 152.889 41.86 151.849L43.9034 149.81C44.5564 149.465 45.0904 148.932 45.436 148.281L45.9468 147.771C46.594 147.423 47.1209 146.888 47.459 146.237Z" fill="#1182E3"/>
<path d="M45.4207 148.271C45.0751 148.922 44.5411 149.455 43.8881 149.8C43.7483 149.774 43.6045 149.783 43.4689 149.825C43.3333 149.868 43.21 149.942 43.1096 150.042C43.0091 150.143 42.9345 150.266 42.8922 150.401C42.8498 150.536 42.841 150.68 42.8664 150.819C42.5292 151.156 42.192 151.497 41.8447 151.839C39.3976 152.282 38.3759 154.611 36.5266 155.87C34.6773 157.129 33.2724 158.776 31.5917 160.167C30.2482 161.278 28.8893 162.665 26.8765 161.671C25.9365 161.207 25.4001 163.108 24.4346 161.987C28.1587 158.868 30.8816 154.851 34.1818 151.385C36.123 149.346 38.1001 146.966 40.7463 145.533C41.1943 145.292 41.6909 145.155 42.1993 145.131C42.7078 145.107 43.2151 145.198 43.6838 145.396C45.4922 146.079 46.0133 145.319 45.8753 143.647C47.2955 143.958 47.0554 145.268 47.4079 146.196C47.0636 146.849 46.5293 147.382 45.8753 147.725L45.4207 148.271Z" fill="#2CBFD6"/>
<path d="M28.0357 164.546C27.2132 166.626 25.4814 167.354 23.438 167.604C24.7159 166.247 26.2889 165.201 28.0357 164.546Z" fill="#1182E3"/>
<path d="M54.606 185.424C55.3671 184.619 56.3582 184.955 57.2522 184.95C64.1897 184.925 71.1323 184.95 78.0748 184.95C78.0748 185.088 78.0748 185.225 78.0748 185.358L54.606 185.424Z" fill="#1182E3"/>
<path d="M126.591 150.789C127.168 149.81 128.057 148.985 128.123 147.731C132.033 144.214 135.165 139.923 137.319 135.131C137.947 133.749 138.611 132.419 139.837 131.466C141.028 132.653 139.924 133.841 139.837 135.034C136.88 138.092 134.969 141.935 132.277 145.228C130.928 146.864 128.788 147.94 128.379 150.376C128.277 151.044 127.229 150.733 126.591 150.789Z" fill="#1182E3"/>
<path d="M139.873 131.44C138.647 132.393 137.983 133.723 137.355 135.105C135.206 139.913 132.074 144.22 128.159 147.751C127.403 146.043 127.327 143.877 125.094 143.163C125.339 140.977 127.648 139.473 127.138 137.047L127.648 136.481H127.613C129.145 136.481 129.268 135.518 129.145 134.355C129.147 134.271 129.172 134.19 129.217 134.119C129.262 134.048 129.326 133.99 129.401 133.953L129.702 133.494C130.882 132.077 131.265 128.223 130.172 127.245C128.006 125.318 125.574 124.008 122.576 125.293C120.19 126.312 118.116 125.67 116.164 124.273C113.125 122.137 110.1 122.51 107.991 125.502C106.849 127.179 105.135 128.385 103.168 128.896C102.192 129.131 101.227 129.442 100.241 129.579C98.3864 129.844 96.4043 130.884 94.6878 129.661C92.8845 128.376 90.8002 128.06 88.8181 127.52C87.076 127.046 85.3136 127.189 83.781 128.876C82.8665 129.895 81.8397 131.251 80.1743 131.424C81.0019 128.295 83.122 125.655 83.5 122.346C83.7197 120.445 84.4655 118.615 84.2612 116.658L85.2829 111.051C87.7299 110.832 88.8589 109.7 88.8129 107.142C88.767 104.97 89.6099 103.105 90.1667 101.137C91.2753 101.29 90.5652 103.14 91.8679 102.666C92.8028 102.34 92.2051 101.305 92.4452 100.628C93.3085 98.2166 91.5256 96.0401 91.8781 93.6648C92.1131 92.0745 95.0965 88.5167 96.6291 88.3128C97.4056 88.2058 97.6099 88.6696 97.4056 89.1793C97.1982 89.5998 97.148 90.0804 97.2641 90.5346C97.3803 90.9887 97.6551 91.3866 98.0391 91.6565C97.9522 93.1602 100.762 87.1354 100.241 88.583C99.7556 89.9439 100.757 88.741 102.289 89.1793C103.822 89.6177 105.482 91.8044 105.784 89.1793C105.845 88.6339 103.102 96.7741 103.602 96.7639C103.602 97.5998 103.648 98.4307 103.669 99.2666C103.628 99.6093 103.718 99.9549 103.922 100.234C104.125 100.513 104.427 100.704 104.767 100.77H104.742C104.338 103.966 106.412 105.541 108.793 106.887L109.349 106.744L109.401 106.815C109.431 107.126 109.584 107.279 109.911 107.213L109.988 107.254C111.081 109.695 113.35 109.349 115.398 109.527L115.909 109.971C117.82 110.276 119.623 109.461 121.503 109.461C122.76 110.256 123.245 109.522 123.546 108.441L123.475 107.386H123.526C124.451 107.636 125.217 106.968 126.08 106.933C126.882 106.423 127.664 105.939 126.111 105.404L126.029 104.807C126.04 104.726 126.069 104.649 126.113 104.581C126.157 104.512 126.216 104.454 126.284 104.41C126.943 104.313 127.133 103.9 127.01 103.298C129.227 102.942 128.41 101.107 128.706 99.8171L129.15 99.3074C129.273 97.8292 129.61 96.3204 129.436 94.8779C129.309 93.8585 129.728 92.0643 127.638 92.1917V92.151C127.536 91.3609 128.032 90.2344 126.54 90.2395V90.2039C126.336 88.4402 125.677 87.1048 123.602 87.0946L123.567 87.0538C123.584 86.9167 123.567 86.7773 123.518 86.6482C123.469 86.519 123.388 86.4039 123.284 86.3132C123.179 86.2225 123.054 86.1589 122.919 86.128C122.784 86.0972 122.643 86.1 122.509 86.1363H122.479C120.66 83.547 117.963 83.3941 115.224 83.7152C113.411 83.9293 111.648 84.6276 109.794 84.5613L105.784 81.7171C108.082 82.0233 110.42 81.784 112.609 81.0188C115.163 79.9994 118.632 81.5642 120.588 78.2867C121.641 76.518 124.164 77.1348 125.789 77.7006C127.592 78.3224 127.49 80.5804 128.103 82.1708C128.287 82.6397 127.817 83.1086 127.368 83.4043C126.826 83.7713 126.014 84.0261 126.438 84.9334C126.785 85.6674 127.557 85.5706 128.236 85.596C132.323 85.6674 129.467 88.8684 131.986 89.0621C132.946 89.0621 133.202 88.3383 133.273 87.4922C133.329 86.8652 132.997 85.963 133.891 85.754C134.913 85.5043 135.03 86.4065 135.424 87.0742C136.318 88.6339 138.274 88.6492 138.617 86.957C139.317 83.4756 141.319 83.6489 143.725 84.6123C145.34 85.2545 147.194 85.2545 148.599 86.3963C149.268 86.9417 149.825 87.5788 149.38 88.583C148.936 89.5871 148.359 89.7961 147.337 89.3475C147.161 89.2612 146.97 89.2128 146.774 89.2053C146.579 89.1978 146.384 89.2314 146.202 89.304C146.02 89.3766 145.856 89.4865 145.72 89.6266C145.584 89.7667 145.478 89.9339 145.411 90.1172C144.016 93.3794 142.213 96.5039 141.549 100.495C143.674 99.1493 143.797 97.1869 144.481 95.5457C145.304 93.5782 146.101 93.4711 147.546 95.0105C148.098 95.5966 148.221 97.1768 149.488 96.4224C150.001 96.094 150.381 95.595 150.56 95.0137C150.74 94.4324 150.707 93.8065 150.469 93.2469C149.876 91.7585 150.336 90.4383 150.601 89.0366C150.631 88.6517 150.806 88.2922 151.09 88.0304C151.374 87.7685 151.747 87.6236 152.134 87.6247C152.645 92.4415 151.214 97.1207 151.112 101.897C150.489 103.879 150.146 105.937 150.091 108.013C149.227 109.242 148.962 110.689 148.558 112.091C146.336 117.937 144.364 123.896 140.895 129.177C140.368 129.833 140.016 130.611 139.873 131.44Z" fill="#199AE5"/>
<path d="M148.558 112.082C148.951 110.68 149.217 109.232 150.091 108.004C150.765 109.813 150.208 111.174 148.558 112.082Z" fill="#1488E5"/>
<path d="M126.264 104.45C126.195 104.494 126.137 104.553 126.093 104.621C126.048 104.69 126.02 104.767 126.008 104.848L123.495 107.437H123.444C118.923 109.476 114.417 109.741 109.937 107.31L109.86 107.269L109.349 106.872L109.298 106.8C107.418 105.077 106.116 102.88 104.7 100.806H104.726C104.747 100.53 104.712 100.253 104.624 99.9902C104.537 99.7277 104.397 99.4852 104.215 99.2768L104.154 94.7913V94.7658C104.661 93.5867 105.172 92.4092 105.686 91.2335L106.029 90.7238C106.091 90.6707 106.14 90.605 106.175 90.5312C106.209 90.4573 106.227 90.377 106.228 90.2956L106.708 89.6635C107.426 89.2061 107.978 88.5307 108.282 87.7368C108.531 87.6968 108.762 87.5822 108.944 87.4084C109.126 87.2346 109.252 87.0096 109.303 86.7633V86.7378C113.574 84.2351 117.947 84.0669 122.412 86.1771H122.443C122.535 86.4016 122.679 86.6014 122.863 86.7607C123.046 86.92 123.264 87.0343 123.5 87.0946L123.536 87.1354L126.473 90.2446V90.2803C126.62 91.0201 127.006 91.6915 127.572 92.1917V92.2325C128.351 94.4785 128.646 96.8631 128.44 99.2309C127.929 100.602 127.418 101.968 126.943 103.309C126.483 103.528 126.448 104.037 126.264 104.45ZM116.941 93.1194C113.993 93.0684 111.464 94.8066 111.423 96.9117C111.377 99.3889 114.565 102.519 117.079 102.478C118.79 102.442 121.615 99.1697 121.574 97.2634C121.528 95.0308 119.439 93.1602 116.941 93.1194Z" fill="#EAEAEA"/>
<path d="M117.01 99.1072C116.499 99.1072 115.758 99.0307 115.697 99.5761C115.396 102.201 114.537 100.438 113 100C111.569 99.5871 113.298 99.4943 112.5 98.5C113.011 97.0422 111.913 96.5037 112 95C114.003 95.7136 115.534 94.4739 117.577 94.5095C117.577 95.3659 117.577 96.2222 117.577 97.0581V97.0836C116.785 97.5729 117.174 98.4242 117.01 99.1072Z" fill="#1E8EE3"/>
<path d="M122.422 86.152C117.957 84.0418 113.584 84.21 109.313 86.7127C109.457 86.0042 109.594 85.2906 109.737 84.577C111.602 84.6433 113.354 83.9449 115.168 83.7309C117.906 83.4097 120.603 83.5627 122.422 86.152Z" fill="#29ACDB"/>
<path d="M104.159 94.7713C104.159 93.915 104.159 93.0586 104.159 92.2227C104.67 91.9118 104.885 91.1064 105.692 91.2593C105.174 92.4249 104.663 93.5955 104.159 94.7713Z" fill="#29ACDB"/>
<path d="M108.282 87.7266C107.978 88.5205 107.426 89.1959 106.708 89.6533C106.637 88.5269 106.841 87.6247 108.282 87.7266Z" fill="#29ACDB"/>
<path d="M148.941 92.3453C148.992 94.0376 146.714 91.9936 148.257 91.805C148.337 91.7944 148.419 91.8 148.498 91.8216C148.576 91.8432 148.65 91.8803 148.713 91.9307C148.777 91.981 148.83 92.0437 148.869 92.1149C148.909 92.1862 148.933 92.2645 148.941 92.3453Z" fill="#199AE5"/>
<path d="M109.324 86.7382C109.272 86.9845 109.147 87.2095 108.965 87.3833C108.782 87.5571 108.551 87.6716 108.302 87.7117C108.2 86.942 108.542 86.6056 109.324 86.7382Z" fill="#29ACDB"/>
<path d="M54.0489 102.509L53.8088 102.555L53.584 102.458C53.297 101.88 52.8628 101.387 52.3248 101.029C51.7868 100.671 51.1641 100.461 50.5189 100.419L50.4831 100.373C50.4831 100.042 50.5649 99.6442 50.4167 99.3537C49.1191 97.0498 50.902 95.9997 52.2711 94.8223C53.8037 93.5021 55.0757 94.5878 56.358 95.383C58.1102 96.4687 58.8663 97.9316 58.2482 99.9959C58.2505 100.076 58.2308 100.154 58.1911 100.224C58.1515 100.293 58.0934 100.35 58.0234 100.388C57.9059 100.516 57.7884 100.643 57.6658 100.766L57.5738 100.857C56.0566 100.689 54.9787 101.443 54.0489 102.509Z" fill="#24B3D4"/>
<path d="M58.2429 100.001C58.8611 97.9621 58.105 96.4737 56.3527 95.388C55.0705 94.5928 53.7985 93.5071 52.2659 94.8273C50.8968 96.0047 49.1139 97.0548 50.4115 99.3587C50.5596 99.6237 50.4625 100.021 50.4779 100.378C48.6541 98.1558 48.4344 96.1424 49.7984 94.7712C51.7601 92.8496 54.764 92.4979 56.7921 93.9608C59.1267 95.6225 59.612 97.6511 58.2429 100.001Z" fill="#2CBFD6"/>
<path d="M54.0488 102.509C54.9837 101.454 56.0616 100.699 57.5738 100.872C56.69 102.055 55.6427 102.865 54.0488 102.509Z" fill="#2CBFD6"/>
<path d="M50.5137 100.398C51.1589 100.44 51.7817 100.651 52.3196 101.009C52.8576 101.367 53.2918 101.859 53.5788 102.437C52.9234 102.437 52.2828 102.243 51.7375 101.88C51.1921 101.517 50.7664 101.002 50.5137 100.398Z" fill="#2CBFD6"/>
<path d="M86.744 160.524C82.6571 160.244 78.5089 161.105 74.5447 159.505C74.1513 159.342 73.7375 159.306 73.5894 158.837C81.9061 160.127 90.2127 160.606 98.4835 158.506C95.071 161.126 90.7696 160.397 86.744 160.524Z" fill="#1E8EE3"/>
<path d="M98.4937 158.491C90.2229 160.591 81.9163 160.112 73.5995 158.822L73.528 158.863C73.1193 158.328 72.5369 158.389 71.9647 158.399L67.3312 156.87L66.3708 156.36C66.2708 156.183 66.1201 156.04 65.938 155.949C65.756 155.859 65.5509 155.824 65.3491 155.85H65.3185C63.0196 154.082 60.2712 153.128 57.7526 151.773H57.7067L57.1958 151.334L57.1345 151.299C56.9751 151.039 56.7642 150.815 56.5147 150.639C56.2652 150.464 55.9824 150.341 55.6837 150.279H55.6377C54.8256 149.23 53.8024 148.362 52.6338 147.731L52.5827 147.7C52.4601 147.19 52.0208 147.19 51.6223 147.109C51.1115 145.467 49.6964 144.672 48.5214 143.643C45.2212 138.872 38.0692 132.99 42.9019 126.924L43.4435 126.414V126.44C45.2864 126.036 47.2036 126.123 49.0016 126.695L50.5342 127.918L50.9991 128.428L52.123 129.957C52.352 130.958 52.8239 131.887 53.4972 132.663C53.472 132.727 53.4706 132.797 53.4931 132.862C53.5156 132.926 53.5605 132.981 53.6198 133.015C53.911 134.881 55.2086 136.022 56.5879 137.093L56.6185 137.139C57.3032 138.428 58.3604 139.483 59.653 140.166H59.6786L60.1894 140.676C62.0847 142.98 64.9915 143.648 67.4079 145.1C67.465 145.164 67.5351 145.215 67.6136 145.249C67.692 145.283 67.7769 145.301 67.8625 145.299L67.8319 145.253L68.3428 145.814C74.8562 148.923 81.7171 149.642 88.8078 148.75C93.9675 148.444 98.8564 147.272 103.143 144.203C103.363 144.243 103.591 144.222 103.801 144.144C104.011 144.066 104.196 143.933 104.338 143.76H104.517L104.634 143.627C105.63 143.393 106.596 143.118 107.25 142.226H107.286C107.601 142.199 107.903 142.085 108.158 141.898C108.413 141.711 108.611 141.458 108.731 141.165L108.762 141.135C112.536 138.527 115.677 135.11 117.957 131.134C118.732 129.833 119.637 128.613 120.66 127.495C125.048 122.826 131.475 127.847 129.636 133.474L129.334 133.933C129.259 133.97 129.196 134.028 129.151 134.099C129.106 134.17 129.081 134.251 129.079 134.335C128.361 134.87 127.826 135.612 127.546 136.461H127.582L127.071 137.027L120.399 145.62L120.369 145.651L115.337 149.754C115.021 149.8 114.72 149.915 114.455 150.091C114.19 150.268 113.968 150.501 113.804 150.774L113.212 151.207V151.171C113.006 151.15 112.799 151.196 112.622 151.303C112.445 151.409 112.307 151.571 112.231 151.762L111.49 152.272H111.342L111.245 152.389L110.586 152.818C106.701 155.003 102.659 156.899 98.4937 158.491Z" fill="#EAEAEA"/>
<path d="M120.394 145.615L127.066 137.021C127.577 139.463 125.288 140.967 125.022 143.138C122.228 142.842 123.015 146.186 120.394 145.615Z" fill="#1E8EE3"/>
<path d="M115.352 149.749L120.384 145.646C119.909 148.785 118.647 149.815 115.352 149.749Z" fill="#1E8EE3"/>
<path d="M113.819 150.768C113.983 150.496 114.205 150.263 114.47 150.086C114.735 149.91 115.037 149.795 115.352 149.749C115.306 150.84 114.555 150.809 113.819 150.768Z" fill="#1E8EE3"/>
<path d="M112.236 151.762C112.313 151.571 112.45 151.409 112.627 151.303C112.804 151.196 113.011 151.15 113.217 151.171C113.115 151.732 112.706 151.798 112.236 151.762Z" fill="#1E8EE3"/>
<path d="M57.7528 151.763C60.2714 153.134 63.0198 154.087 65.3187 155.84C62.3097 155.988 60.4093 153.333 57.6558 152.823L57.7528 151.763Z" fill="#1E8EE3"/>
<path d="M67.3311 156.859L71.9646 158.389C70.243 158.46 68.5162 158.48 67.3311 156.859Z" fill="#1E8EE3"/>
<path d="M71.9751 158.399C72.5473 158.399 73.1296 158.327 73.5383 158.863C72.9508 158.959 72.3429 159.087 71.9751 158.399Z" fill="#1E8EE3"/>
<path d="M65.3491 155.871C65.5509 155.845 65.756 155.879 65.938 155.97C66.1201 156.061 66.2708 156.204 66.3708 156.381C66.1678 156.424 65.9561 156.397 65.7704 156.304C65.5847 156.212 65.4361 156.059 65.3491 155.871Z" fill="#1E8EE3"/>
<path d="M80.1028 131.43C81.7682 131.246 82.795 129.901 83.7094 128.881C85.242 127.194 87.0045 127.051 88.7465 127.525C90.7286 128.066 92.8334 128.382 94.6163 129.666C96.3328 130.89 98.3149 129.85 100.169 129.585C101.155 129.447 102.121 129.136 103.097 128.902C102.999 131.262 104.256 131.583 106.162 130.941C106.765 130.737 107.357 130.14 107.985 130.854C109.314 132.358 108.67 135.258 106.816 135.915C106.075 136.175 105.38 136.425 104.946 137.103C104.18 138.219 104.946 139.483 106.31 138.953C109.099 138.173 109.099 138.173 108.752 141.145L108.721 141.176C107.945 141.135 107.189 141.094 107.275 142.236H107.24C106.295 141.935 105.513 142.608 104.629 142.659C103.26 142.231 101.886 141.823 100.542 141.369C99.3111 140.956 98.366 141.069 97.988 142.511C97.661 143.699 96.6648 143.872 95.7504 143.597C95.1894 143.408 94.5922 143.351 94.0056 143.431C93.4189 143.51 92.8587 143.724 92.3685 144.056C89.7733 145.814 91.6022 140.936 90.4783 139.764C88.9457 140.86 87.4489 142.001 85.855 140.37C84.5093 139.085 83.3303 137.636 82.3454 136.058C81.5485 134.672 81.2011 135.176 80.68 136.058C80.0823 137.078 79.74 138.479 78.3454 138.505C76.0874 138.545 74.8205 140.008 73.5127 141.446C72.9354 142.083 72.5165 142.842 71.4692 142.654C72.3837 140.319 74.6621 138.897 75.5561 136.537C77.4821 135.212 78.4629 133.025 80.1028 131.43Z" fill="#1488E5"/>
<path d="M67.3722 145.1C64.9559 143.648 62.0491 142.98 60.1538 140.676L59.6429 140.166H59.6174C59.7145 138.637 58.0848 138.245 57.6353 137.077C57.9826 136.461 58.3811 135.844 59.1678 136.42C61.2113 137.878 62.9789 138.805 65.5127 136.93C66.892 135.91 67.4438 138.189 68.2152 139.096C68.6443 139.606 68.0977 140.625 68.8486 141.135C68.113 142.236 66.9074 143.148 67.362 144.744C67.3726 144.862 67.376 144.981 67.3722 145.1Z" fill="#29ACDB"/>
<path d="M67.3976 144.733C66.9429 143.138 68.1485 142.226 68.8842 141.125C72.0975 141.522 72.3989 136.919 75.5254 136.537C74.616 138.877 72.3376 140.299 71.4385 142.654C70.57 143.495 69.4308 144.05 68.8535 145.202H68.3733L67.7909 145.258L67.8216 145.299L67.3976 144.733Z" fill="#20A6DC"/>
<path d="M56.5677 137.072C55.1884 135.992 53.8908 134.85 53.5996 132.995C54.6877 132.944 54.7184 134.294 55.6073 134.524L56.629 135.543L56.5677 137.072Z" fill="#2CBFD6"/>
<path d="M57.6503 137.058C58.0896 138.225 59.7295 138.628 59.6324 140.146C58.3416 139.463 57.2863 138.408 56.603 137.119L57.6503 137.058Z" fill="#2CBFD6"/>
<path d="M48.9659 126.68C47.1678 126.108 45.2507 126.021 43.4077 126.425C45.3643 124.834 47.1676 125.477 48.9659 126.68Z" fill="#2CBFD6"/>
<path d="M45.911 143.668C45.1651 143.628 44.3171 143.755 44.1025 142.741C44.1025 142.608 44.3631 142.272 44.5265 142.256C45.5483 142.165 45.8241 142.832 45.9161 143.668H45.911Z" fill="#2CBFD6"/>
<path d="M53.4768 132.633C52.8035 131.857 52.3316 130.928 52.1025 129.927C53.5738 130.319 53.5381 131.456 53.4768 132.633Z" fill="#2CBFD6"/>
<path d="M56.6287 135.529L55.6069 134.509C56.1995 134.601 56.9811 134.203 57.3336 134.891C57.6248 135.411 56.976 135.416 56.6287 135.529Z" fill="#29ACDB"/>
<path d="M52.6235 147.71C53.7921 148.341 54.8153 149.209 55.6274 150.259C54.1459 149.968 52.7972 149.535 52.6235 147.71Z" fill="#1E8EE3"/>
<path d="M55.6735 150.264C55.9722 150.326 56.255 150.448 56.5045 150.624C56.7541 150.799 56.965 151.023 57.1244 151.283C56.3683 151.324 55.648 151.329 55.6735 150.264Z" fill="#1E8EE3"/>
<path d="M42.8867 150.84C42.8613 150.701 42.8702 150.557 42.9125 150.422C42.9549 150.287 43.0295 150.164 43.1299 150.063C43.2304 149.963 43.3537 149.889 43.4893 149.847C43.6249 149.804 43.7687 149.795 43.9085 149.821C43.5662 150.152 43.2239 150.494 42.8867 150.84Z" fill="#29ACDB"/>
<path d="M51.6123 147.088C52.0108 147.159 52.4501 147.164 52.5727 147.679C52.1129 147.715 51.7247 147.618 51.6123 147.088Z" fill="#1E8EE3"/>
<path d="M108.752 141.13C109.099 138.159 109.099 138.159 106.31 138.938C104.951 139.448 104.18 138.21 104.946 137.088C105.38 136.405 106.075 136.161 106.816 135.901C108.67 135.243 109.314 132.333 107.985 130.839C107.357 130.125 106.765 130.722 106.162 130.926C104.256 131.573 102.999 131.252 103.097 128.887C105.063 128.376 106.777 127.17 107.919 125.492C110.044 122.5 113.069 122.128 116.093 124.264C118.044 125.64 120.118 126.303 122.504 125.283C125.498 123.999 127.935 125.309 130.101 127.235C131.194 128.214 130.811 132.068 129.631 133.485C131.47 127.878 125.033 122.837 120.655 127.506C119.632 128.624 118.727 129.843 117.952 131.145C115.669 135.115 112.526 138.527 108.752 141.13Z" fill="#1E8EE3"/>
<path d="M109.937 107.325C114.417 109.757 118.923 109.471 123.444 107.453C123.444 107.804 123.49 108.156 123.516 108.508C123.122 108.525 122.737 108.624 122.385 108.8C122.033 108.976 121.722 109.223 121.472 109.527C119.592 109.527 117.789 110.338 115.878 110.037L115.367 109.593C113.309 109.42 111.03 109.767 109.937 107.325Z" fill="#29ACDB"/>
<path d="M104.691 100.821C106.004 102.712 107.173 104.71 108.824 106.352C108.798 106.556 108.767 106.759 108.742 106.958C106.361 105.592 104.287 104.038 104.691 100.821Z" fill="#1E8EE3"/>
<path d="M128.481 99.2206C128.691 96.8528 128.395 94.4676 127.613 92.2223C129.702 92.0948 129.283 93.889 129.411 94.9085C129.585 96.3509 129.248 97.8597 129.125 99.3379C128.973 99.3429 128.823 99.3634 128.675 99.399L128.481 99.2206Z" fill="#29ACDB"/>
<path d="M126.484 90.2352L123.546 87.126C125.62 87.1362 126.279 88.4716 126.484 90.2352Z" fill="#29ACDB"/>
<path d="M123.495 107.438L126.009 104.849C126.039 105.047 126.065 105.246 126.09 105.445L126.06 106.974C125.186 107.02 124.42 107.688 123.495 107.438Z" fill="#29ACDB"/>
<path d="M126.989 103.324C127.5 101.958 127.985 100.592 128.486 99.2461L128.68 99.4245C128.655 99.5712 128.655 99.7212 128.68 99.8679C128.389 101.132 129.206 102.967 126.989 103.324Z" fill="#29ACDB"/>
<path d="M103.551 96.8152C103.715 96.1322 103.326 95.2861 104.154 94.7764L104.215 99.2619L103.618 99.2975C103.602 98.482 103.602 97.6512 103.551 96.8152Z" fill="#29ACDB"/>
<path d="M127.526 136.476C127.806 135.627 128.341 134.885 129.058 134.351C129.181 135.513 129.038 136.491 127.526 136.476Z" fill="#1E8EE3"/>
<path d="M121.482 109.538C121.732 109.234 122.043 108.986 122.395 108.811C122.747 108.635 123.133 108.536 123.526 108.519C123.209 109.599 122.724 110.333 121.482 109.538Z" fill="#1E8EE3"/>
<path d="M127.613 92.1819C127.047 91.6817 126.661 91.0103 126.514 90.2705C127.991 90.2756 127.495 91.3919 127.613 92.1819Z" fill="#29ACDB"/>
<path d="M126.08 106.984L126.111 105.455C127.643 105.99 126.862 106.485 126.08 106.984Z" fill="#1E8EE3"/>
<path d="M103.602 99.3179L104.2 99.2822C104.382 99.4907 104.521 99.7332 104.609 99.9957C104.697 100.258 104.731 100.535 104.711 100.811C104.371 100.748 104.068 100.559 103.863 100.282C103.657 100.005 103.564 99.6605 103.602 99.3179Z" fill="#1E8EE3"/>
<path d="M126.264 104.451C126.448 104.043 126.484 103.539 126.99 103.34C127.102 103.946 126.923 104.354 126.264 104.451Z" fill="#29ACDB"/>
<path d="M123.526 87.0847C123.29 87.0244 123.072 86.9101 122.888 86.7508C122.705 86.5915 122.561 86.3917 122.468 86.1672C122.602 86.1309 122.743 86.128 122.878 86.1589C123.013 86.1898 123.138 86.2534 123.243 86.3441C123.347 86.4348 123.428 86.5498 123.477 86.679C123.526 86.8082 123.543 86.9475 123.526 87.0847Z" fill="#29ACDB"/>
<path d="M128.686 99.8425C128.66 99.6958 128.66 99.5458 128.686 99.3991C128.833 99.3634 128.984 99.3429 129.135 99.3379L128.686 99.8425Z" fill="#1E8EE3"/>
<path d="M108.742 106.958C108.767 106.759 108.798 106.555 108.823 106.352L109.299 106.815L108.742 106.958Z" fill="#29ACDB"/>
<path d="M109.35 106.887L109.86 107.284C109.534 107.351 109.38 107.198 109.35 106.887Z" fill="#29ACDB"/>
<path d="M116.941 93.1202C119.439 93.161 121.538 95.0317 121.574 97.2642C121.615 99.1706 118.79 102.443 117.079 102.479C114.565 102.53 111.377 99.3897 111.423 96.9125C111.464 94.8074 113.993 93.0693 116.941 93.1202Z" fill="#24B3D4"/>
<path d="M68.8638 145.182C69.441 144.045 70.5803 143.49 71.4487 142.633C72.4704 142.822 72.8996 142.062 73.4922 141.425C74.8 139.988 76.0464 138.525 78.3249 138.484C79.7195 138.459 80.0618 137.047 80.6595 136.038C81.1704 135.156 81.528 134.651 82.3249 136.038C83.3097 137.616 84.4888 139.064 85.8345 140.35C87.4284 141.981 88.8997 140.86 90.4578 139.743C91.5817 140.91 89.7528 145.794 92.348 144.035C92.8381 143.704 93.3984 143.49 93.9851 143.41C94.5717 143.331 95.1688 143.388 95.7299 143.576C96.6443 143.852 97.6405 143.678 97.9674 142.491C98.3659 141.048 99.311 140.936 100.522 141.349C101.886 141.803 103.26 142.21 104.609 142.638C104.609 142.965 104.609 143.291 104.609 143.617L104.491 143.75H104.312C103.827 143.673 103.377 143.683 103.117 144.193C98.8308 147.251 93.9214 148.434 88.7822 148.74C87.929 147.894 86.8307 148.189 85.8805 148.281C80.9252 148.755 76.1742 147.547 71.3976 146.594C70.4832 146.421 69.3389 146.313 68.8638 145.182Z" fill="#127EE9"/>
<path d="M68.8637 145.182C69.3439 146.313 70.4882 146.42 71.418 146.604C76.1945 147.557 80.9455 148.765 85.9009 148.291C86.8511 148.199 87.9443 147.904 88.8025 148.75C81.7118 149.642 74.851 148.923 68.3682 145.814C68.3682 145.61 68.3682 145.401 68.409 145.197L68.8637 145.182Z" fill="#1E8EE3"/>
<path d="M104.624 143.632C104.624 143.306 104.624 142.98 104.624 142.653C105.508 142.602 106.289 141.93 107.235 142.23C106.586 143.107 105.646 143.398 104.624 143.632Z" fill="#1E8EE3"/>
<path d="M107.275 142.221C107.173 141.079 107.944 141.12 108.721 141.161C108.601 141.453 108.403 141.706 108.147 141.894C107.892 142.081 107.591 142.194 107.275 142.221Z" fill="#1E8EE3"/>
<path d="M103.132 144.203C103.393 143.694 103.842 143.694 104.328 143.76C104.186 143.934 104.001 144.066 103.791 144.144C103.58 144.222 103.353 144.243 103.132 144.203Z" fill="#1E8EE3"/>
<path d="M59.6685 140.151L60.1793 140.661C59.9852 140.503 59.8217 140.325 59.6685 140.151Z" fill="#2CBFD6"/>
<path d="M67.3976 144.733L67.8267 145.294C67.7413 145.297 67.6562 145.282 67.5776 145.248C67.499 145.215 67.4288 145.164 67.3721 145.1C67.3882 144.979 67.3967 144.856 67.3976 144.733Z" fill="#127EE9"/>
<path d="M68.3788 145.197C68.3788 145.401 68.3481 145.61 68.3379 145.814L67.7964 145.253L68.3788 145.197Z" fill="#127EE9"/>
</g>
<defs>
<clipPath id="clip0_861_4214">
<rect width="171" height="186" fill="white"/>
</clipPath>
</defs>
</svg>
